<svg xmlns="http://www.w3.org/2000/svg" width="1200" height="720" viewBox="0 0 1200 720" fill="none">
  <defs>
    <linearGradient id="bg" x1="140" y1="60" x2="1060" y2="660" gradientUnits="userSpaceOnUse">
      <stop stop-color="#0B1223"/>
      <stop offset="1" stop-color="#0A1A34"/>
    </linearGradient>
    <linearGradient id="accent" x1="110" y1="120" x2="1080" y2="640" gradientUnits="userSpaceOnUse">
      <stop stop-color="#7AB0FF" stop-opacity="0.65"/>
      <stop offset="0.55" stop-color="#9AD7FF" stop-opacity="0.18"/>
      <stop offset="1" stop-color="#7AB0FF" stop-opacity="0.35"/>
    </linearGradient>
    <filter id="softGlow" x="-20%" y="-20%" width="140%" height="140%">
      <feGaussianBlur stdDeviation="14" result="blur"/>
      <feColorMatrix in="blur" type="matrix" values="1 0 0 0 0  0 1 0 0 0  0 0 1 0 0  0 0 0 0.85 0" result="glow"/>
      <feMerge>
        <feMergeNode in="glow"/>
        <feMergeNode in="SourceGraphic"/>
      </feMerge>
    </filter>
  </defs>

  <rect x="0" y="0" width="1200" height="720" rx="26" fill="url(#bg)"/>
  <rect x="18" y="18" width="1164" height="684" rx="22" stroke="rgba(170,210,255,0.16)" stroke-width="2"/>

  <!-- Top bar -->
  <rect x="48" y="44" width="1104" height="64" rx="18" fill="rgba(255,255,255,0.04)" stroke="rgba(170,210,255,0.12)"/>
  <circle cx="86" cy="76" r="8" fill="#FF6A6A" fill-opacity="0.85"/>
  <circle cx="112" cy="76" r="8" fill="#FFD36A" fill-opacity="0.85"/>
  <circle cx="138" cy="76" r="8" fill="#6AFFA8" fill-opacity="0.8"/>
  <rect x="194" y="62" width="520" height="28" rx="10" fill="rgba(255,255,255,0.05)"/>
  <rect x="730" y="62" width="122" height="28" rx="10" fill="rgba(122,176,255,0.14)"/>
  <rect x="864" y="62" width="132" height="28" rx="10" fill="rgba(154,215,255,0.10)"/>
  <rect x="1008" y="62" width="124" height="28" rx="10" fill="rgba(255,255,255,0.05)"/>

  <!-- Sidebar -->
  <rect x="48" y="128" width="240" height="540" rx="20" fill="rgba(255,255,255,0.03)" stroke="rgba(170,210,255,0.10)"/>
  <rect x="72" y="156" width="170" height="18" rx="9" fill="rgba(154,215,255,0.12)"/>
  <rect x="72" y="190" width="200" height="10" rx="5" fill="rgba(255,255,255,0.08)"/>
  <rect x="72" y="212" width="190" height="10" rx="5" fill="rgba(255,255,255,0.06)"/>
  <rect x="72" y="234" width="178" height="10" rx="5" fill="rgba(255,255,255,0.06)"/>
  <rect x="72" y="266" width="208" height="34" rx="12" fill="rgba(122,176,255,0.12)" stroke="rgba(122,176,255,0.18)"/>
  <rect x="88" y="278" width="144" height="10" rx="5" fill="rgba(255,255,255,0.12)"/>
  <rect x="72" y="320" width="192" height="10" rx="5" fill="rgba(255,255,255,0.06)"/>
  <rect x="72" y="342" width="165" height="10" rx="5" fill="rgba(255,255,255,0.06)"/>
  <rect x="72" y="364" width="210" height="10" rx="5" fill="rgba(255,255,255,0.06)"/>
  <rect x="72" y="396" width="136" height="10" rx="5" fill="rgba(255,255,255,0.06)"/>
  <rect x="72" y="418" width="188" height="10" rx="5" fill="rgba(255,255,255,0.06)"/>

  <!-- Editor area -->
  <rect x="306" y="128" width="846" height="540" rx="20" fill="rgba(255,255,255,0.02)" stroke="rgba(170,210,255,0.10)"/>
  <rect x="328" y="156" width="802" height="36" rx="14" fill="rgba(255,255,255,0.03)"/>
  <rect x="344" y="166" width="110" height="16" rx="8" fill="rgba(122,176,255,0.16)"/>
  <rect x="462" y="166" width="128" height="16" rx="8" fill="rgba(255,255,255,0.06)"/>
  <rect x="598" y="166" width="96" height="16" rx="8" fill="rgba(255,255,255,0.06)"/>

  <!-- Code lines -->
  <g opacity="0.9">
    <rect x="340" y="224" width="120" height="12" rx="6" fill="rgba(154,215,255,0.16)"/>
    <rect x="472" y="224" width="260" height="12" rx="6" fill="rgba(255,255,255,0.10)"/>
    <rect x="340" y="252" width="70" height="12" rx="6" fill="rgba(122,176,255,0.18)"/>
    <rect x="420" y="252" width="340" height="12" rx="6" fill="rgba(255,255,255,0.08)"/>
    <rect x="340" y="280" width="160" height="12" rx="6" fill="rgba(255,255,255,0.08)"/>
    <rect x="510" y="280" width="210" height="12" rx="6" fill="rgba(154,215,255,0.14)"/>
    <rect x="340" y="308" width="90" height="12" rx="6" fill="rgba(255,255,255,0.08)"/>
    <rect x="438" y="308" width="300" height="12" rx="6" fill="rgba(255,255,255,0.07)"/>
    <rect x="340" y="336" width="140" height="12" rx="6" fill="rgba(122,176,255,0.14)"/>
    <rect x="490" y="336" width="360" height="12" rx="6" fill="rgba(255,255,255,0.07)"/>
    <rect x="340" y="364" width="220" height="12" rx="6" fill="rgba(255,255,255,0.08)"/>
    <rect x="570" y="364" width="180" height="12" rx="6" fill="rgba(154,215,255,0.12)"/>
    <rect x="340" y="392" width="110" height="12" rx="6" fill="rgba(255,255,255,0.07)"/>
    <rect x="458" y="392" width="420" height="12" rx="6" fill="rgba(255,255,255,0.06)"/>
    <rect x="340" y="420" width="150" height="12" rx="6" fill="rgba(122,176,255,0.14)"/>
    <rect x="500" y="420" width="320" height="12" rx="6" fill="rgba(255,255,255,0.06)"/>
  </g>

  <!-- Highlight glow -->
  <g filter="url(#softGlow)">
    <path d="M370 520 C 490 460, 610 560, 720 500 C 820 446, 940 520, 1060 470" stroke="url(#accent)" stroke-width="18" stroke-linecap="round" opacity="0.55"/>
  </g>

  <!-- Mini terminal panel -->
  <rect x="328" y="566" width="802" height="84" rx="18" fill="rgba(0,0,0,0.25)" stroke="rgba(170,210,255,0.10)"/>
  <rect x="350" y="590" width="96" height="10" rx="5" fill="rgba(154,215,255,0.14)"/>
  <rect x="454" y="590" width="190" height="10" rx="5" fill="rgba(255,255,255,0.08)"/>
  <rect x="350" y="614" width="72" height="10" rx="5" fill="rgba(122,176,255,0.14)"/>
  <rect x="430" y="614" width="320" height="10" rx="5" fill="rgba(255,255,255,0.07)"/>
</svg>
