<svg xmlns="http://www.w3.org/2000/svg" width="1200" height="760" viewBox="0 0 1200 760" fill="none">
  <defs>
    <linearGradient id="bg2" x1="140" y1="60" x2="1080" y2="700" gradientUnits="userSpaceOnUse">
      <stop stop-color="#0A1428"/>
      <stop offset="1" stop-color="#091A33"/>
    </linearGradient>
    <linearGradient id="card" x1="240" y1="140" x2="980" y2="620" gradientUnits="userSpaceOnUse">
      <stop stop-color="rgba(255,255,255,0.07)"/>
      <stop offset="1" stop-color="rgba(255,255,255,0.02)"/>
    </linearGradient>
    <linearGradient id="gradA" x1="0" y1="0" x2="1" y2="1">
      <stop stop-color="#7AB0FF" stop-opacity="0.9"/>
      <stop offset="1" stop-color="#9AD7FF" stop-opacity="0.6"/>
    </linearGradient>
    <filter id="shadow" x="-20%" y="-20%" width="140%" height="140%">
      <feDropShadow dx="0" dy="26" stdDeviation="22" flood-color="rgba(0,0,0,0.45)"/>
    </filter>
  </defs>

  <rect x="0" y="0" width="1200" height="760" rx="26" fill="url(#bg2)"/>
  <rect x="18" y="18" width="1164" height="724" rx="22" stroke="rgba(170,210,255,0.16)" stroke-width="2"/>

  <!-- Header -->
  <rect x="48" y="44" width="1104" height="68" rx="18" fill="rgba(255,255,255,0.04)" stroke="rgba(170,210,255,0.12)"/>
  <rect x="78" y="66" width="132" height="24" rx="12" fill="rgba(122,176,255,0.16)"/>
  <rect x="226" y="66" width="250" height="24" rx="12" fill="rgba(255,255,255,0.06)"/>
  <rect x="1016" y="62" width="106" height="32" rx="16" fill="rgba(154,215,255,0.10)"/>
  <circle cx="968" cy="78" r="14" fill="rgba(255,255,255,0.06)"/>

  <!-- Sidebar -->
  <rect x="48" y="132" width="260" height="580" rx="20" fill="rgba(255,255,255,0.03)" stroke="rgba(170,210,255,0.10)"/>
  <rect x="74" y="160" width="180" height="14" rx="7" fill="rgba(154,215,255,0.12)"/>
  <rect x="74" y="194" width="210" height="38" rx="14" fill="rgba(122,176,255,0.12)" stroke="rgba(122,176,255,0.18)"/>
  <rect x="92" y="208" width="130" height="10" rx="5" fill="rgba(255,255,255,0.12)"/>
  <rect x="74" y="246" width="200" height="12" rx="6" fill="rgba(255,255,255,0.07)"/>
  <rect x="74" y="270" width="176" height="12" rx="6" fill="rgba(255,255,255,0.07)"/>
  <rect x="74" y="294" width="206" height="12" rx="6" fill="rgba(255,255,255,0.07)"/>
  <rect x="74" y="334" width="150" height="12" rx="6" fill="rgba(255,255,255,0.06)"/>
  <rect x="74" y="358" width="190" height="12" rx="6" fill="rgba(255,255,255,0.06)"/>

  <!-- Main -->
  <g filter="url(#shadow)">
    <rect x="330" y="132" width="822" height="580" rx="20" fill="rgba(255,255,255,0.02)" stroke="rgba(170,210,255,0.10)"/>
  </g>

  <!-- KPI cards -->
  <rect x="356" y="160" width="250" height="120" rx="18" fill="url(#card)" stroke="rgba(170,210,255,0.10)"/>
  <rect x="622" y="160" width="250" height="120" rx="18" fill="url(#card)" stroke="rgba(170,210,255,0.10)"/>
  <rect x="888" y="160" width="236" height="120" rx="18" fill="url(#card)" stroke="rgba(170,210,255,0.10)"/>

  <rect x="378" y="182" width="120" height="12" rx="6" fill="rgba(154,215,255,0.14)"/>
  <rect x="378" y="210" width="70" height="26" rx="13" fill="rgba(255,255,255,0.08)"/>
  <rect x="456" y="214" width="120" height="18" rx="9" fill="rgba(255,255,255,0.05)"/>
  <rect x="378" y="246" width="210" height="10" rx="5" fill="rgba(255,255,255,0.06)"/>

  <rect x="644" y="182" width="118" height="12" rx="6" fill="rgba(154,215,255,0.14)"/>
  <rect x="644" y="210" width="84" height="26" rx="13" fill="rgba(255,255,255,0.08)"/>
  <rect x="736" y="214" width="110" height="18" rx="9" fill="rgba(255,255,255,0.05)"/>
  <rect x="644" y="246" width="206" height="10" rx="5" fill="rgba(255,255,255,0.06)"/>

  <rect x="910" y="182" width="96" height="12" rx="6" fill="rgba(154,215,255,0.14)"/>
  <rect x="910" y="210" width="110" height="26" rx="13" fill="rgba(255,255,255,0.08)"/>
  <rect x="910" y="246" width="190" height="10" rx="5" fill="rgba(255,255,255,0.06)"/>

  <!-- Chart -->
  <rect x="356" y="300" width="520" height="240" rx="18" fill="rgba(255,255,255,0.02)" stroke="rgba(170,210,255,0.10)"/>
  <rect x="378" y="324" width="140" height="12" rx="6" fill="rgba(255,255,255,0.08)"/>
  <path d="M388 504 C 452 430, 520 474, 586 410 C 646 352, 708 408, 760 356 C 802 316, 844 338, 866 324"
        stroke="url(#gradA)" stroke-width="10" stroke-linecap="round" fill="none"/>
  <path d="M388 504 C 452 430, 520 474, 586 410 C 646 352, 708 408, 760 356 C 802 316, 844 338, 866 324"
        stroke="rgba(154,215,255,0.20)" stroke-width="18" stroke-linecap="round" fill="none" opacity="0.35"/>

  <!-- Table -->
  <rect x="894" y="300" width="230" height="412" rx="18" fill="rgba(255,255,255,0.02)" stroke="rgba(170,210,255,0.10)"/>
  <rect x="916" y="324" width="130" height="12" rx="6" fill="rgba(255,255,255,0.08)"/>
  <rect x="916" y="356" width="186" height="34" rx="12" fill="rgba(122,176,255,0.10)"/>
  <rect x="930" y="368" width="84" height="10" rx="5" fill="rgba(255,255,255,0.12)"/>
  <rect x="916" y="404" width="186" height="12" rx="6" fill="rgba(255,255,255,0.06)"/>
  <rect x="916" y="432" width="170" height="12" rx="6" fill="rgba(255,255,255,0.06)"/>
  <rect x="916" y="460" width="186" height="12" rx="6" fill="rgba(255,255,255,0.06)"/>
  <rect x="916" y="488" width="158" height="12" rx="6" fill="rgba(255,255,255,0.06)"/>
  <rect x="916" y="516" width="186" height="12" rx="6" fill="rgba(255,255,255,0.06)"/>

  <!-- Activity feed -->
  <rect x="356" y="556" width="520" height="156" rx="18" fill="rgba(255,255,255,0.02)" stroke="rgba(170,210,255,0.10)"/>
  <rect x="378" y="580" width="150" height="12" rx="6" fill="rgba(255,255,255,0.08)"/>
  <circle cx="390" cy="624" r="10" fill="rgba(154,215,255,0.14)"/>
  <rect x="410" y="616" width="250" height="14" rx="7" fill="rgba(255,255,255,0.07)"/>
  <circle cx="390" cy="660" r="10" fill="rgba(122,176,255,0.14)"/>
  <rect x="410" y="652" width="280" height="14" rx="7" fill="rgba(255,255,255,0.06)"/>
</svg>
